<svg width="25" height="25" viewBox="0 0 25 25" fill="none" xmlns="http://www.w3.org/2000/svg">
<rect width="25" height="25" fill="white"/>
<path d="M19.4438 20.8333H11.1105V15.2778H9.72157V20.8333H5.5549V15.2778H4.16602V20.8333C4.16602 21.2017 4.31234 21.555 4.57281 21.8154C4.83328 22.0759 5.18655 22.2222 5.5549 22.2222H19.4438C19.8121 22.2222 20.1654 22.0759 20.4259 21.8154C20.6864 21.555 20.8327 21.2017 20.8327 20.8333V15.2778H19.4438V20.8333Z" fill="#2647B5"/>
<path d="M23.4651 9.21527L20.6317 3.5486C20.5168 3.31721 20.3395 3.12247 20.1199 2.9863C19.9003 2.85012 19.6471 2.77791 19.3887 2.77777H5.6109C5.35251 2.77791 5.09928 2.85012 4.87969 2.9863C4.66009 3.12247 4.48283 3.31721 4.36785 3.5486L1.53452 9.21527C1.43778 9.40936 1.38783 9.62341 1.38868 9.84027V11.9792C1.38805 12.3037 1.50107 12.6182 1.70813 12.868C2.01414 13.2188 2.39208 13.4996 2.81627 13.6914C3.24047 13.8831 3.70096 13.9812 4.16646 13.9792C4.92602 13.9803 5.66242 13.7177 6.24979 13.2361C6.83716 13.718 7.5734 13.9813 8.33313 13.9813C9.09285 13.9813 9.82909 13.718 10.4165 13.2361C11.0038 13.718 11.7401 13.9813 12.4998 13.9813C13.2595 13.9813 13.9958 13.718 14.5831 13.2361C15.1705 13.718 15.9067 13.9813 16.6665 13.9813C17.4262 13.9813 18.1624 13.718 18.7498 13.2361C19.4055 13.7745 20.2443 14.0376 21.09 13.9703C21.9357 13.9029 22.7223 13.5103 23.2845 12.875C23.4941 12.6261 23.6096 12.3115 23.6109 11.9861V9.84027C23.6118 9.62341 23.5618 9.40936 23.4651 9.21527ZM10.4165 9.99999V11.0555L9.84702 11.8055C9.67221 12.0438 9.44375 12.2376 9.18014 12.3711C8.91652 12.5047 8.62516 12.5742 8.32965 12.5742C8.03414 12.5742 7.74279 12.5047 7.47917 12.3711C7.21556 12.2376 6.9871 12.0438 6.81229 11.8055L6.24979 11.0278V9.99999L8.0484 4.16666H11.1109L10.4165 9.99999ZM18.7498 11.0278L18.1873 11.8055C18.0125 12.0438 17.784 12.2376 17.5204 12.3711C17.2568 12.5047 16.9654 12.5742 16.6699 12.5742C16.3744 12.5742 16.0831 12.5047 15.8195 12.3711C15.5558 12.2376 15.3274 12.0438 15.1526 11.8055L14.5831 11.0278V9.99999L13.8887 4.16666H16.979L18.7498 9.99999V11.0278Z" fill="#2647B5"/>
</svg>
