<svg width="25" height="25" viewBox="0 0 25 25" fill="none" xmlns="http://www.w3.org/2000/svg">
<path d="M19.4438 20.8333H11.1105V15.2778H9.72157V20.8333H5.5549V15.2778H4.16602V20.8333C4.16602 21.2017 4.31234 21.555 4.57281 21.8154C4.83328 22.0759 5.18655 22.2222 5.5549 22.2222H19.4438C19.8121 22.2222 20.1654 22.0759 20.4259 21.8154C20.6864 21.555 20.8327 21.2017 20.8327 20.8333V15.2778H19.4438V20.8333Z" fill="#3A3A3A"/>
<path d="M23.4651 9.21527L20.6317 3.5486C20.5168 3.31721 20.3395 3.12247 20.1199 2.9863C19.9003 2.85012 19.6471 2.77791 19.3887 2.77777H5.6109C5.35251 2.77791 5.09928 2.85012 4.87969 2.9863C4.66009 3.12247 4.48283 3.31721 4.36785 3.5486L1.53452 9.21527C1.43778 9.40936 1.38783 9.62341 1.38868 9.84027V11.9792C1.38805 12.3037 1.50107 12.6182 1.70813 12.868C2.01414 13.2188 2.39208 13.4996 2.81628 13.6914C3.24047 13.8831 3.70096 13.9812 4.16646 13.9792C4.92602 13.9803 5.66242 13.7177 6.24979 13.2361C6.83716 13.718 7.5734 13.9813 8.33313 13.9813C9.09286 13.9813 9.82909 13.718 10.4165 13.2361C11.0038 13.718 11.7401 13.9813 12.4998 13.9813C13.2595 13.9813 13.9958 13.718 14.5831 13.2361C15.1705 13.718 15.9067 13.9813 16.6665 13.9813C17.4262 13.9813 18.1624 13.718 18.7498 13.2361C19.4055 13.7745 20.2443 14.0376 21.09 13.9703C21.9357 13.9029 22.7223 13.5103 23.2845 12.875C23.4941 12.6261 23.6096 12.3115 23.6109 11.9861V9.84027C23.6118 9.62341 23.5618 9.40936 23.4651 9.21527ZM20.8331 12.5903C20.5365 12.5896 20.2444 12.518 19.981 12.3815C19.7177 12.245 19.4908 12.0475 19.3192 11.8055L18.7498 11.0278L18.1873 11.8055C18.0125 12.0438 17.784 12.2376 17.5204 12.3711C17.2568 12.5047 16.9654 12.5742 16.6699 12.5742C16.3744 12.5742 16.0831 12.5047 15.8195 12.3711C15.5558 12.2376 15.3274 12.0438 15.1526 11.8055L14.5831 11.0278L14.0206 11.8055C13.8458 12.0438 13.6174 12.2376 13.3537 12.3711C13.0901 12.5047 12.7988 12.5742 12.5033 12.5742C12.2078 12.5742 11.9164 12.5047 11.6528 12.3711C11.3892 12.2376 11.1607 12.0438 10.9859 11.8055L10.4165 11.0278L9.85396 11.8055C9.67915 12.0438 9.45069 12.2376 9.18708 12.3711C8.92347 12.5047 8.63211 12.5742 8.3366 12.5742C8.04109 12.5742 7.74973 12.5047 7.48612 12.3711C7.2225 12.2376 6.99405 12.0438 6.81924 11.8055L6.24979 11.0278L5.68035 11.8055C5.5088 12.0475 5.2819 12.245 5.01856 12.3815C4.75522 12.518 4.46307 12.5896 4.16646 12.5903C3.90475 12.5935 3.64539 12.5406 3.40582 12.4352C3.16626 12.3297 2.95204 12.1743 2.77757 11.9792V9.84027L5.6109 4.16666H19.3887L22.222 9.83333V11.9583C22.0486 12.1562 21.8351 12.3148 21.5956 12.4238C21.3561 12.5328 21.0962 12.5895 20.8331 12.5903Z" fill="#3A3A3A"/>
</svg>
