<svg width="24" height="24" viewBox="0 0 24 24" fill="none" xmlns="http://www.w3.org/2000/svg">
<path d="M5 22C4.45 22 3.97933 21.8043 3.588 21.413C3.19667 21.0217 3.00067 20.5507 3 20V8.725C2.7 8.54167 2.45833 8.30433 2.275 8.013C2.09167 7.72167 2 7.384 2 7V4C2 3.45 2.196 2.97933 2.588 2.588C2.98 2.19667 3.45067 2.00067 4 2H20C20.55 2 21.021 2.196 21.413 2.588C21.805 2.98 22.0007 3.45067 22 4V7C22 7.38333 21.9083 7.721 21.725 8.013C21.5417 8.305 21.3 8.542 21 8.724V20C21 20.55 20.8043 21.021 20.413 21.413C20.0217 21.805 19.5507 22.0007 19 22H5ZM4 7H20V4H4V7ZM10 14H14C14.2833 14 14.521 13.904 14.713 13.712C14.905 13.52 15.0007 13.2827 15 13C14.9993 12.7173 14.9033 12.48 14.712 12.288C14.5207 12.096 14.2833 12 14 12H10C9.71667 12 9.47933 12.096 9.288 12.288C9.09667 12.48 9.00067 12.7173 9 13C8.99933 13.2827 9.09533 13.5203 9.288 13.713C9.48067 13.9057 9.718 14.0013 10 14Z" fill="black"/>
</svg>
