<svg width="20" height="21" viewBox="0 0 20 21" fill="none" xmlns="http://www.w3.org/2000/svg">
<path fill-rule="evenodd" clip-rule="evenodd" d="M15.5 0C15.8105 0 16.1167 0.0722902 16.3944 0.211146C16.6721 0.350001 16.9137 0.551608 17.1 0.8L19.788 4.384C19.9226 4.56095 19.9944 4.7777 19.992 5H20V6C20.0001 6.97436 19.6445 7.91523 19 8.646V16C19 16.5304 18.7893 17.0391 18.4142 17.4142C18.0391 17.7893 17.5304 18 17 18H3C2.46957 18 1.96086 17.7893 1.58579 17.4142C1.21071 17.0391 1 16.5304 1 16V8.646C0.355524 7.91523 -6.05681e-05 6.97436 7.7383e-09 6V5H0.0079999C0.00563691 4.7777 0.0774178 4.56095 0.212 4.384L2.9 0.8C3.08629 0.551608 3.32786 0.350001 3.60557 0.211146C3.88328 0.0722902 4.18951 0 4.5 0H15.5ZM18 6H14C13.9977 6.51898 14.1972 7.01855 14.5564 7.39315C14.9156 7.76776 15.4063 7.98807 15.9249 8.00754C16.4436 8.02701 16.9494 7.84412 17.3357 7.49751C17.722 7.15089 17.9584 6.6677 17.995 6.15L18 6ZM12 6H8C7.99768 6.51898 8.19719 7.01855 8.55638 7.39315C8.91557 7.76776 9.40632 7.98807 9.92494 8.00754C10.4436 8.02701 10.9494 7.84412 11.3357 7.49751C11.722 7.15089 11.9584 6.6677 11.995 6.15L12 6ZM6 6H2C1.99768 6.51898 2.19719 7.01855 2.55638 7.39315C2.91557 7.76776 3.40632 7.98807 3.92494 8.00754C4.44356 8.02701 4.94945 7.84412 5.33572 7.49751C5.72199 7.15089 5.9584 6.6677 5.995 6.15L6 6Z" fill="black"/>
</svg>
